<svg xmlns="http://www.w3.org/2000/svg" viewBox="572 142 263 279">
  <g shape-rendering="geometricPrecision">
    <path d="M 700.0 152.0 L 699.0 153.0 L 698.0 153.0 L 697.0 153.0 L 696.0 153.0 L 695.0 153.0 L 694.0 153.0 L 693.0 153.0 L 692.0 153.0 L 691.0 154.0 L 690.0 154.0 L 689.0 154.0 L 688.0 154.0 L 687.0 154.0 L 686.0 155.0 L 685.0 155.0 L 684.0 155.0 L 683.0 155.0 L 682.0 156.0 L 681.0 156.0 L 680.0 156.0 L 679.0 156.0 L 678.0 157.0 L 677.0 157.0 L 676.0 157.0 L 675.0 158.0 L 674.0 158.0 L 673.0 158.0 L 672.0 159.0 L 671.0 159.0 L 670.0 160.0 L 669.0 160.0 L 668.0 161.0 L 667.0 161.0 L 666.0 161.0 L 665.0 162.0 L 664.0 162.0 L 663.0 163.0 L 662.0 163.0 L 661.0 164.0 L 660.0 164.0 L 659.0 165.0 L 658.0 166.0 L 657.0 166.0 L 656.0 167.0 L 655.0 167.0 L 654.0 168.0 L 653.0 169.0 L 652.0 170.0 L 651.0 170.0 L 650.0 171.0 L 649.0 172.0 L 648.0 173.0 L 647.0 174.0 L 646.0 174.0 L 645.0 175.0 L 644.0 176.0 L 643.0 177.0 L 643.0 178.0 L 642.0 179.0 L 641.0 180.0 L 640.0 181.0 L 639.0 181.0 L 638.0 182.0 L 638.0 183.0 L 637.0 184.0 L 636.0 185.0 L 635.0 186.0 L 635.0 187.0 L 634.0 188.0 L 633.0 189.0 L 633.0 190.0 L 632.0 191.0 L 632.0 192.0 L 631.0 193.0 L 630.0 194.0 L 630.0 195.0 L 629.0 196.0 L 629.0 197.0 L 628.0 198.0 L 628.0 199.0 L 628.0 200.0 L 627.0 201.0 L 627.0 202.0 L 626.0 203.0 L 626.0 204.0 L 626.0 205.0 L 625.0 206.0 L 625.0 207.0 L 625.0 208.0 L 624.0 209.0 L 624.0 210.0 L 624.0 211.0 L 623.0 212.0 L 623.0 213.0 L 623.0 214.0 L 623.0 215.0 L 623.0 216.0 L 622.0 217.0 L 622.0 218.0 L 622.0 219.0 L 622.0 220.0 L 622.0 221.0 L 622.0 222.0 L 621.0 223.0 L 621.0 224.0 L 621.0 225.0 L 621.0 226.0 L 621.0 227.0 L 621.0 228.0 L 621.0 229.0 L 621.0 230.0 L 621.0 231.0 L 621.0 232.0 L 621.0 233.0 L 621.0 234.0 L 621.0 235.0 L 621.0 236.0 L 621.0 237.0 L 621.0 238.0 L 621.0 239.0 L 621.0 240.0 L 621.0 241.0 L 621.0 242.0 L 621.0 243.0 L 621.0 244.0 L 621.0 245.0 L 621.0 246.0 L 621.0 247.0 L 621.0 248.0 L 622.0 249.0 L 622.0 250.0 L 622.0 251.0 L 622.0 252.0 L 622.0 253.0 L 623.0 254.0 L 623.0 255.0 L 623.0 256.0 L 623.0 257.0 L 623.0 258.0 L 624.0 259.0 L 624.0 260.0 L 624.0 261.0 L 625.0 262.0 L 625.0 263.0 L 625.0 264.0 L 626.0 265.0 L 626.0 266.0 L 626.0 267.0 L 626.0 268.0 L 627.0 269.0 L 627.0 270.0 L 628.0 271.0 L 628.0 272.0 L 628.0 273.0 L 628.0 274.0 L 629.0 275.0 L 629.0 276.0 L 630.0 277.0 L 630.0 278.0 L 631.0 279.0 L 631.0 280.0 L 632.0 281.0 L 632.0 282.0 L 633.0 283.0 L 633.0 284.0 L 634.0 285.0 L 634.0 286.0 L 635.0 287.0 L 635.0 288.0 L 636.0 289.0 L 636.0 290.0 L 637.0 291.0 L 637.0 292.0 L 638.0 293.0 L 639.0 294.0 L 639.0 295.0 L 640.0 296.0 L 641.0 297.0 L 641.0 298.0 L 642.0 299.0 L 642.0 300.0 L 643.0 301.0 L 644.0 302.0 L 644.0 303.0 L 645.0 304.0 L 645.0 305.0 L 646.0 306.0 L 647.0 307.0 L 648.0 308.0 L 649.0 309.0 L 649.0 310.0 L 650.0 311.0 L 651.0 312.0 L 652.0 313.0 L 652.0 314.0 L 653.0 315.0 L 654.0 316.0 L 655.0 317.0 L 656.0 318.0 L 657.0 319.0 L 658.0 320.0 L 658.0 321.0 L 659.0 322.0 L 660.0 323.0 L 661.0 324.0 L 662.0 325.0 L 663.0 326.0 L 664.0 327.0 L 665.0 328.0 L 666.0 329.0 L 667.0 330.0 L 668.0 331.0 L 669.0 332.0 L 670.0 332.0 L 671.0 333.0 L 672.0 334.0 L 673.0 335.0 L 674.0 336.0 L 675.0 337.0 L 676.0 338.0 L 677.0 339.0 L 678.0 340.0 L 679.0 340.0 L 680.0 341.0 L 681.0 342.0 L 682.0 343.0 L 683.0 343.0 L 684.0 344.0 L 685.0 345.0 L 686.0 346.0 L 687.0 346.0 L 688.0 347.0 L 689.0 347.0 L 690.0 348.0 L 691.0 349.0 L 692.0 350.0 L 693.0 350.0 L 694.0 351.0 L 695.0 352.0 L 696.0 352.0 L 697.0 353.0 L 698.0 354.0 L 699.0 354.0 L 700.0 355.0 L 701.0 355.0 L 702.0 356.0 L 703.0 356.0 L 704.0 357.0 L 705.0 358.0 L 706.0 358.0 L 707.0 359.0 L 708.0 359.0 L 709.0 360.0 L 710.0 360.0 L 711.0 361.0 L 712.0 361.0 L 713.0 362.0 L 714.0 362.0 L 715.0 363.0 L 716.0 363.0 L 717.0 364.0 L 718.0 364.0 L 719.0 365.0 L 720.0 365.0 L 721.0 365.0 L 722.0 366.0 L 723.0 366.0 L 724.0 367.0 L 725.0 367.0 L 726.0 368.0 L 727.0 368.0 L 728.0 368.0 L 729.0 369.0 L 730.0 369.0 L 731.0 369.0 L 732.0 370.0 L 733.0 370.0 L 734.0 370.0 L 735.0 371.0 L 736.0 371.0 L 737.0 371.0 L 738.0 371.0 L 739.0 372.0 L 740.0 372.0 L 741.0 372.0 L 742.0 372.0 L 743.0 372.0 L 744.0 373.0 L 745.0 373.0 L 746.0 373.0 L 747.0 373.0 L 748.0 374.0 L 749.0 374.0 L 750.0 374.0 L 751.0 374.0 L 752.0 374.0 L 753.0 374.0 L 754.0 374.0 L 755.0 375.0 L 756.0 375.0 L 757.0 375.0 L 758.0 375.0 L 759.0 375.0 L 760.0 375.0 L 761.0 375.0 L 762.0 375.0 L 763.0 375.0 L 764.0 375.0 L 765.0 375.0 L 766.0 375.0 L 767.0 375.0 L 768.0 375.0 L 769.0 375.0 L 770.0 375.0 L 771.0 375.0 L 772.0 375.0 L 773.0 375.0 L 774.0 375.0 L 775.0 375.0 L 776.0 375.0 L 777.0 374.0 L 778.0 374.0 L 779.0 374.0 L 780.0 374.0 L 781.0 374.0 L 782.0 374.0 L 783.0 373.0 L 784.0 373.0 L 785.0 373.0 L 786.0 373.0 L 787.0 372.0 L 788.0 372.0 L 789.0 372.0 L 790.0 373.0 L 789.0 374.0 L 788.0 374.0 L 787.0 375.0 L 786.0 376.0 L 785.0 376.0 L 784.0 377.0 L 783.0 378.0 L 782.0 378.0 L 781.0 379.0 L 780.0 380.0 L 779.0 380.0 L 778.0 381.0 L 777.0 381.0 L 776.0 382.0 L 775.0 382.0 L 774.0 383.0 L 773.0 384.0 L 772.0 384.0 L 771.0 385.0 L 770.0 385.0 L 769.0 386.0 L 768.0 386.0 L 767.0 387.0 L 766.0 387.0 L 765.0 387.0 L 764.0 388.0 L 763.0 388.0 L 762.0 389.0 L 761.0 389.0 L 760.0 389.0 L 759.0 390.0 L 758.0 390.0 L 757.0 390.0 L 756.0 391.0 L 755.0 391.0 L 754.0 392.0 L 753.0 392.0 L 752.0 392.0 L 751.0 392.0 L 750.0 393.0 L 749.0 393.0 L 748.0 393.0 L 747.0 394.0 L 746.0 394.0 L 745.0 394.0 L 744.0 394.0 L 743.0 395.0 L 742.0 395.0 L 741.0 395.0 L 740.0 395.0 L 739.0 395.0 L 738.0 396.0 L 737.0 396.0 L 736.0 396.0 L 735.0 396.0 L 734.0 396.0 L 733.0 396.0 L 732.0 396.0 L 731.0 396.0 L 730.0 397.0 L 729.0 397.0 L 728.0 397.0 L 727.0 397.0 L 726.0 397.0 L 725.0 397.0 L 724.0 397.0 L 723.0 397.0 L 722.0 397.0 L 721.0 397.0 L 720.0 397.0 L 719.0 397.0 L 718.0 397.0 L 717.0 397.0 L 716.0 397.0 L 715.0 397.0 L 714.0 397.0 L 713.0 397.0 L 712.0 397.0 L 711.0 397.0 L 710.0 397.0 L 709.0 396.0 L 708.0 396.0 L 707.0 396.0 L 706.0 396.0 L 705.0 396.0 L 704.0 396.0 L 703.0 396.0 L 702.0 396.0 L 701.0 395.0 L 700.0 395.0 L 699.0 395.0 L 698.0 395.0 L 697.0 394.0 L 696.0 394.0 L 695.0 394.0 L 694.0 393.0 L 693.0 393.0 L 692.0 393.0 L 691.0 392.0 L 690.0 392.0 L 689.0 392.0 L 688.0 391.0 L 687.0 391.0 L 686.0 390.0 L 685.0 390.0 L 684.0 389.0 L 683.0 389.0 L 682.0 388.0 L 681.0 388.0 L 680.0 387.0 L 679.0 387.0 L 678.0 386.0 L 677.0 386.0 L 676.0 385.0 L 675.0 384.0 L 674.0 384.0 L 673.0 383.0 L 672.0 382.0 L 671.0 381.0 L 670.0 380.0 L 669.0 380.0 L 668.0 379.0 L 667.0 378.0 L 666.0 377.0 L 665.0 376.0 L 664.0 375.0 L 664.0 374.0 L 663.0 373.0 L 662.0 372.0 L 661.0 371.0 L 660.0 370.0 L 660.0 369.0 L 659.0 368.0 L 658.0 367.0 L 658.0 366.0 L 657.0 365.0 L 657.0 364.0 L 656.0 363.0 L 656.0 362.0 L 655.0 361.0 L 655.0 360.0 L 654.0 359.0 L 654.0 358.0 L 653.0 357.0 L 653.0 356.0 L 653.0 355.0 L 652.0 354.0 L 652.0 353.0 L 652.0 352.0 L 651.0 351.0 L 651.0 350.0 L 651.0 349.0 L 651.0 348.0 L 650.0 347.0 L 650.0 346.0 L 650.0 345.0 L 650.0 344.0 L 649.0 343.0 L 649.0 342.0 L 649.0 341.0 L 649.0 340.0 L 649.0 339.0 L 649.0 338.0 L 648.0 337.0 L 648.0 336.0 L 648.0 335.0 L 648.0 334.0 L 648.0 333.0 L 648.0 332.0 L 648.0 331.0 L 648.0 330.0 L 648.0 329.0 L 648.0 328.0 L 648.0 327.0 L 648.0 326.0 L 648.0 325.0 L 648.0 324.0 L 648.0 323.0 L 648.0 322.0 L 648.0 321.0 L 648.0 320.0 L 647.0 319.0 L 647.0 318.0 L 646.0 317.0 L 645.0 316.0 L 644.0 315.0 L 643.0 314.0 L 643.0 313.0 L 642.0 312.0 L 641.0 311.0 L 641.0 310.0 L 640.0 309.0 L 639.0 308.0 L 638.0 307.0 L 638.0 306.0 L 637.0 305.0 L 637.0 304.0 L 636.0 303.0 L 635.0 302.0 L 635.0 301.0 L 634.0 300.0 L 634.0 299.0 L 633.0 299.0 L 633.0 300.0 L 633.0 301.0 L 633.0 302.0 L 632.0 303.0 L 632.0 304.0 L 632.0 305.0 L 632.0 306.0 L 632.0 307.0 L 631.0 308.0 L 631.0 309.0 L 631.0 310.0 L 631.0 311.0 L 631.0 312.0 L 631.0 313.0 L 631.0 314.0 L 630.0 315.0 L 630.0 316.0 L 630.0 317.0 L 630.0 318.0 L 630.0 319.0 L 630.0 320.0 L 630.0 321.0 L 630.0 322.0 L 630.0 323.0 L 630.0 324.0 L 629.0 325.0 L 629.0 326.0 L 629.0 327.0 L 629.0 328.0 L 629.0 329.0 L 630.0 330.0 L 630.0 331.0 L 630.0 332.0 L 630.0 333.0 L 630.0 334.0 L 630.0 335.0 L 630.0 336.0 L 630.0 337.0 L 630.0 338.0 L 630.0 339.0 L 630.0 340.0 L 630.0 341.0 L 630.0 342.0 L 631.0 343.0 L 631.0 344.0 L 631.0 345.0 L 631.0 346.0 L 632.0 347.0 L 632.0 348.0 L 632.0 349.0 L 632.0 350.0 L 632.0 351.0 L 633.0 352.0 L 633.0 353.0 L 633.0 354.0 L 633.0 355.0 L 634.0 356.0 L 634.0 357.0 L 634.0 358.0 L 635.0 359.0 L 635.0 360.0 L 636.0 361.0 L 636.0 362.0 L 636.0 363.0 L 637.0 364.0 L 637.0 365.0 L 638.0 366.0 L 638.0 367.0 L 639.0 368.0 L 639.0 369.0 L 640.0 370.0 L 640.0 371.0 L 641.0 372.0 L 642.0 373.0 L 642.0 374.0 L 643.0 375.0 L 643.0 376.0 L 644.0 377.0 L 645.0 378.0 L 645.0 379.0 L 646.0 380.0 L 647.0 381.0 L 648.0 382.0 L 649.0 383.0 L 649.0 384.0 L 650.0 385.0 L 651.0 386.0 L 652.0 387.0 L 653.0 388.0 L 654.0 389.0 L 655.0 390.0 L 656.0 391.0 L 657.0 392.0 L 658.0 392.0 L 659.0 393.0 L 660.0 394.0 L 661.0 395.0 L 662.0 396.0 L 663.0 396.0 L 664.0 397.0 L 665.0 398.0 L 666.0 398.0 L 667.0 399.0 L 668.0 400.0 L 669.0 400.0 L 670.0 401.0 L 671.0 401.0 L 672.0 402.0 L 673.0 402.0 L 674.0 403.0 L 675.0 403.0 L 676.0 403.0 L 677.0 404.0 L 678.0 404.0 L 679.0 405.0 L 680.0 405.0 L 681.0 405.0 L 682.0 406.0 L 683.0 406.0 L 684.0 406.0 L 685.0 407.0 L 686.0 407.0 L 687.0 407.0 L 688.0 407.0 L 689.0 408.0 L 690.0 408.0 L 691.0 408.0 L 692.0 409.0 L 693.0 409.0 L 694.0 409.0 L 695.0 409.0 L 696.0 409.0 L 697.0 409.0 L 698.0 410.0 L 699.0 410.0 L 700.0 410.0 L 701.0 410.0 L 702.0 410.0 L 703.0 410.0 L 704.0 410.0 L 705.0 410.0 L 706.0 411.0 L 707.0 411.0 L 708.0 411.0 L 709.0 411.0 L 710.0 411.0 L 711.0 411.0 L 712.0 411.0 L 713.0 411.0 L 714.0 411.0 L 715.0 411.0 L 716.0 411.0 L 717.0 410.0 L 718.0 410.0 L 719.0 410.0 L 720.0 410.0 L 721.0 410.0 L 722.0 410.0 L 723.0 410.0 L 724.0 410.0 L 725.0 410.0 L 726.0 410.0 L 727.0 410.0 L 728.0 410.0 L 729.0 409.0 L 730.0 409.0 L 731.0 409.0 L 732.0 409.0 L 733.0 409.0 L 734.0 409.0 L 735.0 408.0 L 736.0 408.0 L 737.0 408.0 L 738.0 408.0 L 739.0 407.0 L 740.0 407.0 L 741.0 407.0 L 742.0 407.0 L 743.0 407.0 L 744.0 406.0 L 745.0 406.0 L 746.0 406.0 L 747.0 405.0 L 748.0 405.0 L 749.0 405.0 L 750.0 404.0 L 751.0 404.0 L 752.0 404.0 L 753.0 404.0 L 754.0 403.0 L 755.0 403.0 L 756.0 403.0 L 757.0 402.0 L 758.0 402.0 L 759.0 401.0 L 760.0 401.0 L 761.0 401.0 L 762.0 400.0 L 763.0 400.0 L 764.0 399.0 L 765.0 399.0 L 766.0 398.0 L 767.0 398.0 L 768.0 397.0 L 769.0 397.0 L 770.0 396.0 L 771.0 396.0 L 772.0 395.0 L 773.0 395.0 L 774.0 394.0 L 775.0 394.0 L 776.0 393.0 L 777.0 392.0 L 778.0 392.0 L 779.0 391.0 L 780.0 390.0 L 781.0 390.0 L 782.0 389.0 L 783.0 389.0 L 784.0 388.0 L 785.0 387.0 L 786.0 387.0 L 787.0 386.0 L 788.0 385.0 L 789.0 384.0 L 790.0 384.0 L 791.0 383.0 L 792.0 382.0 L 793.0 381.0 L 794.0 380.0 L 795.0 379.0 L 796.0 378.0 L 797.0 378.0 L 798.0 377.0 L 799.0 376.0 L 800.0 375.0 L 801.0 374.0 L 802.0 373.0 L 803.0 372.0 L 804.0 371.0 L 805.0 370.0 L 806.0 369.0 L 807.0 368.0 L 808.0 367.0 L 808.0 366.0 L 809.0 365.0 L 810.0 364.0 L 811.0 363.0 L 812.0 362.0 L 813.0 361.0 L 813.0 360.0 L 814.0 359.0 L 815.0 358.0 L 816.0 357.0 L 816.0 356.0 L 817.0 355.0 L 818.0 354.0 L 818.0 353.0 L 819.0 352.0 L 820.0 351.0 L 820.0 350.0 L 821.0 349.0 L 821.0 348.0 L 822.0 347.0 L 823.0 346.0 L 823.0 345.0 L 824.0 344.0 L 824.0 343.0 L 825.0 342.0 L 825.0 341.0 L 824.0 340.0 L 823.0 339.0 L 822.0 339.0 L 821.0 339.0 L 820.0 340.0 L 820.0 341.0 L 819.0 342.0 L 818.0 343.0 L 817.0 344.0 L 816.0 345.0 L 815.0 346.0 L 814.0 347.0 L 813.0 348.0 L 812.0 349.0 L 811.0 350.0 L 810.0 351.0 L 809.0 352.0 L 808.0 353.0 L 807.0 353.0 L 806.0 354.0 L 805.0 355.0 L 804.0 355.0 L 803.0 356.0 L 802.0 356.0 L 801.0 357.0 L 800.0 357.0 L 799.0 357.0 L 798.0 358.0 L 797.0 358.0 L 796.0 359.0 L 795.0 359.0 L 794.0 359.0 L 793.0 360.0 L 792.0 360.0 L 791.0 361.0 L 790.0 361.0 L 789.0 361.0 L 788.0 361.0 L 787.0 362.0 L 786.0 362.0 L 785.0 362.0 L 784.0 362.0 L 783.0 362.0 L 782.0 362.0 L 781.0 363.0 L 780.0 363.0 L 779.0 363.0 L 778.0 363.0 L 777.0 363.0 L 776.0 363.0 L 775.0 363.0 L 774.0 363.0 L 773.0 363.0 L 772.0 363.0 L 771.0 363.0 L 770.0 363.0 L 769.0 363.0 L 768.0 363.0 L 767.0 363.0 L 766.0 363.0 L 765.0 363.0 L 764.0 363.0 L 763.0 362.0 L 762.0 362.0 L 761.0 362.0 L 760.0 362.0 L 759.0 362.0 L 758.0 362.0 L 757.0 362.0 L 756.0 361.0 L 755.0 361.0 L 754.0 361.0 L 753.0 361.0 L 752.0 361.0 L 751.0 360.0 L 750.0 360.0 L 749.0 360.0 L 748.0 359.0 L 747.0 359.0 L 746.0 359.0 L 745.0 358.0 L 744.0 358.0 L 743.0 358.0 L 742.0 358.0 L 741.0 357.0 L 740.0 357.0 L 739.0 356.0 L 738.0 356.0 L 737.0 356.0 L 736.0 355.0 L 735.0 355.0 L 734.0 355.0 L 733.0 354.0 L 732.0 354.0 L 731.0 353.0 L 730.0 353.0 L 729.0 352.0 L 728.0 352.0 L 727.0 351.0 L 726.0 351.0 L 725.0 350.0 L 724.0 350.0 L 723.0 349.0 L 722.0 349.0 L 721.0 348.0 L 720.0 348.0 L 719.0 347.0 L 718.0 347.0 L 717.0 346.0 L 716.0 346.0 L 715.0 345.0 L 714.0 344.0 L 713.0 344.0 L 712.0 343.0 L 711.0 343.0 L 710.0 342.0 L 709.0 341.0 L 708.0 341.0 L 707.0 340.0 L 706.0 339.0 L 705.0 339.0 L 704.0 338.0 L 703.0 337.0 L 702.0 337.0 L 701.0 336.0 L 700.0 335.0 L 699.0 334.0 L 698.0 333.0 L 697.0 333.0 L 696.0 332.0 L 695.0 331.0 L 694.0 331.0 L 693.0 330.0 L 692.0 329.0 L 691.0 328.0 L 690.0 327.0 L 689.0 326.0 L 688.0 325.0 L 687.0 325.0 L 686.0 324.0 L 685.0 323.0 L 684.0 322.0 L 683.0 321.0 L 682.0 320.0 L 681.0 319.0 L 680.0 318.0 L 679.0 317.0 L 678.0 316.0 L 677.0 315.0 L 676.0 314.0 L 675.0 313.0 L 674.0 312.0 L 673.0 311.0 L 673.0 310.0 L 672.0 309.0 L 671.0 308.0 L 670.0 307.0 L 669.0 306.0 L 668.0 305.0 L 667.0 304.0 L 667.0 303.0 L 666.0 302.0 L 665.0 301.0 L 664.0 300.0 L 663.0 299.0 L 663.0 298.0 L 662.0 297.0 L 661.0 296.0 L 660.0 295.0 L 660.0 294.0 L 659.0 293.0 L 659.0 292.0 L 658.0 291.0 L 657.0 290.0 L 657.0 289.0 L 656.0 288.0 L 655.0 287.0 L 655.0 286.0 L 654.0 285.0 L 653.0 284.0 L 653.0 283.0 L 652.0 282.0 L 652.0 281.0 L 651.0 280.0 L 651.0 279.0 L 650.0 278.0 L 650.0 277.0 L 649.0 276.0 L 649.0 275.0 L 648.0 274.0 L 648.0 273.0 L 647.0 272.0 L 647.0 271.0 L 647.0 270.0 L 646.0 269.0 L 646.0 268.0 L 645.0 267.0 L 645.0 266.0 L 645.0 265.0 L 644.0 264.0 L 644.0 263.0 L 644.0 262.0 L 643.0 261.0 L 643.0 260.0 L 643.0 259.0 L 642.0 258.0 L 642.0 257.0 L 642.0 256.0 L 641.0 255.0 L 641.0 254.0 L 641.0 253.0 L 641.0 252.0 L 641.0 251.0 L 640.0 250.0 L 640.0 249.0 L 640.0 248.0 L 640.0 247.0 L 640.0 246.0 L 640.0 245.0 L 639.0 244.0 L 639.0 243.0 L 639.0 242.0 L 639.0 241.0 L 639.0 240.0 L 639.0 239.0 L 639.0 238.0 L 639.0 237.0 L 639.0 236.0 L 639.0 235.0 L 639.0 234.0 L 639.0 233.0 L 639.0 232.0 L 639.0 231.0 L 639.0 230.0 L 639.0 229.0 L 639.0 228.0 L 639.0 227.0 L 639.0 226.0 L 639.0 225.0 L 639.0 224.0 L 639.0 223.0 L 639.0 222.0 L 640.0 221.0 L 640.0 220.0 L 640.0 219.0 L 640.0 218.0 L 640.0 217.0 L 641.0 216.0 L 641.0 215.0 L 641.0 214.0 L 641.0 213.0 L 642.0 212.0 L 642.0 211.0 L 642.0 210.0 L 643.0 209.0 L 643.0 208.0 L 643.0 207.0 L 644.0 206.0 L 644.0 205.0 L 644.0 204.0 L 645.0 203.0 L 646.0 202.0 L 646.0 201.0 L 647.0 200.0 L 647.0 199.0 L 648.0 198.0 L 649.0 197.0 L 649.0 196.0 L 650.0 195.0 L 651.0 194.0 L 651.0 193.0 L 652.0 192.0 L 653.0 191.0 L 653.0 190.0 L 654.0 189.0 L 655.0 188.0 L 656.0 188.0 L 657.0 187.0 L 658.0 186.0 L 659.0 185.0 L 660.0 184.0 L 661.0 183.0 L 662.0 182.0 L 663.0 181.0 L 664.0 180.0 L 665.0 180.0 L 666.0 179.0 L 667.0 178.0 L 668.0 178.0 L 669.0 177.0 L 670.0 176.0 L 671.0 176.0 L 672.0 175.0 L 673.0 175.0 L 674.0 174.0 L 675.0 174.0 L 676.0 173.0 L 677.0 173.0 L 678.0 172.0 L 679.0 172.0 L 680.0 171.0 L 681.0 171.0 L 682.0 171.0 L 683.0 170.0 L 684.0 170.0 L 685.0 170.0 L 686.0 169.0 L 687.0 169.0 L 688.0 169.0 L 689.0 168.0 L 690.0 168.0 L 691.0 168.0 L 692.0 168.0 L 693.0 167.0 L 694.0 167.0 L 695.0 167.0 L 696.0 167.0 L 697.0 167.0 L 698.0 166.0 L 699.0 166.0 L 700.0 166.0 L 701.0 166.0 L 702.0 166.0 L 703.0 165.0 L 704.0 165.0 L 705.0 165.0 L 706.0 165.0 L 707.0 165.0 L 708.0 165.0 L 709.0 165.0 L 710.0 165.0 L 711.0 165.0 L 712.0 165.0 L 713.0 165.0 L 714.0 165.0 L 715.0 165.0 L 716.0 165.0 L 717.0 165.0 L 718.0 165.0 L 719.0 165.0 L 720.0 165.0 L 721.0 165.0 L 722.0 165.0 L 723.0 165.0 L 724.0 165.0 L 725.0 165.0 L 726.0 165.0 L 727.0 165.0 L 728.0 165.0 L 729.0 165.0 L 730.0 165.0 L 731.0 166.0 L 732.0 166.0 L 733.0 166.0 L 734.0 166.0 L 735.0 166.0 L 736.0 166.0 L 737.0 166.0 L 738.0 167.0 L 739.0 167.0 L 740.0 167.0 L 741.0 167.0 L 742.0 167.0 L 743.0 168.0 L 744.0 168.0 L 745.0 168.0 L 746.0 168.0 L 747.0 169.0 L 748.0 169.0 L 749.0 169.0 L 750.0 169.0 L 751.0 170.0 L 752.0 170.0 L 753.0 170.0 L 754.0 171.0 L 755.0 171.0 L 756.0 171.0 L 757.0 172.0 L 758.0 172.0 L 759.0 172.0 L 760.0 173.0 L 761.0 173.0 L 762.0 173.0 L 763.0 174.0 L 764.0 174.0 L 765.0 175.0 L 766.0 175.0 L 767.0 176.0 L 768.0 176.0 L 769.0 177.0 L 770.0 177.0 L 771.0 178.0 L 772.0 178.0 L 773.0 178.0 L 774.0 179.0 L 775.0 179.0 L 776.0 180.0 L 777.0 180.0 L 778.0 181.0 L 779.0 181.0 L 780.0 182.0 L 781.0 183.0 L 780.0 184.0 L 779.0 184.0 L 778.0 184.0 L 777.0 184.0 L 776.0 184.0 L 775.0 184.0 L 774.0 184.0 L 773.0 184.0 L 772.0 184.0 L 771.0 183.0 L 770.0 183.0 L 769.0 183.0 L 768.0 183.0 L 767.0 183.0 L 766.0 183.0 L 765.0 183.0 L 764.0 183.0 L 763.0 183.0 L 762.0 183.0 L 761.0 183.0 L 760.0 183.0 L 759.0 183.0 L 758.0 183.0 L 757.0 183.0 L 756.0 184.0 L 755.0 184.0 L 754.0 184.0 L 753.0 184.0 L 752.0 184.0 L 751.0 184.0 L 750.0 184.0 L 749.0 185.0 L 748.0 185.0 L 747.0 185.0 L 746.0 185.0 L 745.0 185.0 L 744.0 186.0 L 743.0 186.0 L 742.0 186.0 L 741.0 186.0 L 740.0 187.0 L 739.0 187.0 L 738.0 187.0 L 737.0 188.0 L 736.0 188.0 L 735.0 188.0 L 734.0 188.0 L 733.0 189.0 L 732.0 189.0 L 731.0 190.0 L 730.0 190.0 L 729.0 190.0 L 728.0 191.0 L 727.0 191.0 L 726.0 191.0 L 725.0 192.0 L 724.0 192.0 L 723.0 193.0 L 722.0 193.0 L 721.0 194.0 L 720.0 194.0 L 719.0 195.0 L 718.0 195.0 L 717.0 195.0 L 716.0 196.0 L 715.0 197.0 L 714.0 197.0 L 713.0 198.0 L 712.0 198.0 L 711.0 199.0 L 710.0 199.0 L 709.0 200.0 L 708.0 201.0 L 707.0 201.0 L 706.0 202.0 L 705.0 203.0 L 704.0 203.0 L 703.0 204.0 L 702.0 204.0 L 701.0 205.0 L 700.0 206.0 L 699.0 207.0 L 698.0 207.0 L 697.0 208.0 L 696.0 209.0 L 695.0 209.0 L 694.0 210.0 L 693.0 211.0 L 692.0 212.0 L 691.0 212.0 L 690.0 213.0 L 689.0 214.0 L 688.0 215.0 L 687.0 216.0 L 686.0 217.0 L 685.0 218.0 L 684.0 218.0 L 683.0 219.0 L 682.0 220.0 L 681.0 221.0 L 680.0 222.0 L 679.0 223.0 L 678.0 224.0 L 677.0 225.0 L 676.0 226.0 L 675.0 227.0 L 674.0 228.0 L 673.0 229.0 L 672.0 230.0 L 671.0 231.0 L 670.0 232.0 L 670.0 233.0 L 669.0 234.0 L 668.0 235.0 L 667.0 236.0 L 666.0 237.0 L 665.0 238.0 L 664.0 239.0 L 664.0 240.0 L 663.0 241.0 L 662.0 242.0 L 661.0 243.0 L 660.0 244.0 L 660.0 245.0 L 659.0 246.0 L 658.0 247.0 L 658.0 248.0 L 657.0 249.0 L 656.0 250.0 L 656.0 251.0 L 655.0 252.0 L 655.0 253.0 L 654.0 254.0 L 653.0 255.0 L 652.0 256.0 L 652.0 257.0 L 651.0 258.0 L 651.0 259.0 L 651.0 260.0 L 651.0 261.0 L 651.0 262.0 L 652.0 263.0 L 652.0 264.0 L 652.0 265.0 L 653.0 266.0 L 653.0 267.0 L 654.0 268.0 L 654.0 269.0 L 654.0 270.0 L 655.0 271.0 L 655.0 272.0 L 656.0 273.0 L 656.0 274.0 L 657.0 275.0 L 657.0 276.0 L 658.0 277.0 L 659.0 278.0 L 659.0 279.0 L 660.0 280.0 L 660.0 279.0 L 661.0 278.0 L 661.0 277.0 L 662.0 276.0 L 662.0 275.0 L 663.0 274.0 L 663.0 273.0 L 664.0 272.0 L 664.0 271.0 L 665.0 270.0 L 665.0 269.0 L 666.0 268.0 L 667.0 267.0 L 667.0 266.0 L 668.0 265.0 L 668.0 264.0 L 669.0 263.0 L 670.0 262.0 L 670.0 261.0 L 671.0 260.0 L 671.0 259.0 L 672.0 258.0 L 673.0 257.0 L 673.0 256.0 L 674.0 255.0 L 675.0 254.0 L 675.0 253.0 L 676.0 252.0 L 677.0 251.0 L 678.0 250.0 L 678.0 249.0 L 679.0 248.0 L 680.0 247.0 L 681.0 246.0 L 682.0 245.0 L 683.0 244.0 L 683.0 243.0 L 684.0 242.0 L 685.0 241.0 L 686.0 240.0 L 687.0 239.0 L 688.0 238.0 L 689.0 237.0 L 690.0 236.0 L 691.0 235.0 L 692.0 234.0 L 693.0 233.0 L 694.0 232.0 L 695.0 231.0 L 696.0 230.0 L 697.0 229.0 L 698.0 228.0 L 699.0 227.0 L 700.0 226.0 L 701.0 225.0 L 702.0 225.0 L 703.0 224.0 L 704.0 223.0 L 705.0 222.0 L 706.0 221.0 L 707.0 220.0 L 708.0 220.0 L 709.0 219.0 L 710.0 218.0 L 711.0 217.0 L 712.0 217.0 L 713.0 216.0 L 714.0 215.0 L 715.0 215.0 L 716.0 214.0 L 717.0 213.0 L 718.0 213.0 L 719.0 212.0 L 720.0 212.0 L 721.0 211.0 L 722.0 210.0 L 723.0 210.0 L 724.0 209.0 L 725.0 209.0 L 726.0 208.0 L 727.0 208.0 L 728.0 207.0 L 729.0 206.0 L 730.0 206.0 L 731.0 205.0 L 732.0 205.0 L 733.0 204.0 L 734.0 204.0 L 735.0 203.0 L 736.0 203.0 L 737.0 203.0 L 738.0 202.0 L 739.0 202.0 L 740.0 202.0 L 741.0 201.0 L 742.0 201.0 L 743.0 201.0 L 744.0 200.0 L 745.0 200.0 L 746.0 199.0 L 747.0 199.0 L 748.0 199.0 L 749.0 199.0 L 750.0 198.0 L 751.0 198.0 L 752.0 198.0 L 753.0 197.0 L 754.0 197.0 L 755.0 197.0 L 756.0 197.0 L 757.0 197.0 L 758.0 196.0 L 759.0 196.0 L 760.0 196.0 L 761.0 196.0 L 762.0 196.0 L 763.0 196.0 L 764.0 196.0 L 765.0 196.0 L 766.0 195.0 L 767.0 195.0 L 768.0 195.0 L 769.0 195.0 L 770.0 195.0 L 771.0 195.0 L 772.0 195.0 L 773.0 195.0 L 774.0 195.0 L 775.0 195.0 L 776.0 195.0 L 777.0 195.0 L 778.0 195.0 L 779.0 196.0 L 780.0 196.0 L 781.0 196.0 L 782.0 196.0 L 783.0 196.0 L 784.0 196.0 L 785.0 196.0 L 786.0 197.0 L 787.0 197.0 L 788.0 197.0 L 789.0 197.0 L 790.0 198.0 L 791.0 198.0 L 792.0 198.0 L 793.0 199.0 L 794.0 199.0 L 795.0 199.0 L 796.0 200.0 L 797.0 200.0 L 798.0 201.0 L 799.0 201.0 L 800.0 202.0 L 801.0 202.0 L 802.0 203.0 L 803.0 203.0 L 804.0 204.0 L 805.0 204.0 L 806.0 205.0 L 807.0 206.0 L 808.0 207.0 L 809.0 208.0 L 810.0 208.0 L 811.0 209.0 L 812.0 210.0 L 813.0 211.0 L 814.0 212.0 L 814.0 213.0 L 815.0 214.0 L 816.0 215.0 L 817.0 216.0 L 818.0 217.0 L 818.0 218.0 L 819.0 219.0 L 820.0 220.0 L 820.0 221.0 L 821.0 222.0 L 822.0 223.0 L 823.0 222.0 L 824.0 221.0 L 825.0 221.0 L 825.0 220.0 L 824.0 219.0 L 824.0 218.0 L 823.0 217.0 L 823.0 216.0 L 822.0 215.0 L 821.0 214.0 L 821.0 213.0 L 820.0 212.0 L 820.0 211.0 L 819.0 210.0 L 818.0 209.0 L 818.0 208.0 L 817.0 207.0 L 816.0 206.0 L 816.0 205.0 L 815.0 204.0 L 814.0 203.0 L 813.0 202.0 L 812.0 201.0 L 812.0 200.0 L 811.0 199.0 L 810.0 198.0 L 809.0 197.0 L 808.0 196.0 L 808.0 195.0 L 807.0 194.0 L 806.0 193.0 L 805.0 192.0 L 804.0 191.0 L 803.0 190.0 L 802.0 189.0 L 801.0 188.0 L 800.0 187.0 L 799.0 186.0 L 798.0 185.0 L 797.0 185.0 L 796.0 184.0 L 795.0 183.0 L 794.0 182.0 L 793.0 181.0 L 792.0 181.0 L 791.0 180.0 L 790.0 179.0 L 789.0 178.0 L 788.0 178.0 L 787.0 177.0 L 786.0 176.0 L 785.0 175.0 L 784.0 175.0 L 783.0 174.0 L 782.0 173.0 L 781.0 173.0 L 780.0 172.0 L 779.0 171.0 L 778.0 171.0 L 777.0 170.0 L 776.0 170.0 L 775.0 169.0 L 774.0 169.0 L 773.0 168.0 L 772.0 167.0 L 771.0 167.0 L 770.0 166.0 L 769.0 166.0 L 768.0 165.0 L 767.0 165.0 L 766.0 164.0 L 765.0 164.0 L 764.0 163.0 L 763.0 163.0 L 762.0 162.0 L 761.0 162.0 L 760.0 162.0 L 759.0 161.0 L 758.0 161.0 L 757.0 160.0 L 756.0 160.0 L 755.0 160.0 L 754.0 159.0 L 753.0 159.0 L 752.0 159.0 L 751.0 158.0 L 750.0 158.0 L 749.0 158.0 L 748.0 157.0 L 747.0 157.0 L 746.0 157.0 L 745.0 156.0 L 744.0 156.0 L 743.0 156.0 L 742.0 156.0 L 741.0 156.0 L 740.0 155.0 L 739.0 155.0 L 738.0 155.0 L 737.0 155.0 L 736.0 154.0 L 735.0 154.0 L 734.0 154.0 L 733.0 154.0 L 732.0 154.0 L 731.0 154.0 L 730.0 153.0 L 729.0 153.0 L 728.0 153.0 L 727.0 153.0 L 726.0 153.0 L 725.0 153.0 L 724.0 153.0 L 723.0 153.0 L 722.0 152.0 L 721.0 152.0 L 720.0 152.0 L 719.0 152.0 L 718.0 152.0 L 717.0 152.0 L 716.0 152.0 L 715.0 152.0 L 714.0 152.0 L 713.0 152.0 L 712.0 152.0 L 711.0 152.0 L 710.0 152.0 L 709.0 152.0 L 708.0 152.0 L 707.0 152.0 L 706.0 152.0 L 705.0 152.0 L 704.0 152.0 L 703.0 152.0 L 702.0 152.0 L 701.0 152.0 Z" fill="black"/>
    <path d="M 629.0 182.0 L 628.0 183.0 L 627.0 183.0 L 626.0 184.0 L 625.0 185.0 L 624.0 186.0 L 623.0 187.0 L 622.0 188.0 L 621.0 189.0 L 620.0 190.0 L 619.0 191.0 L 618.0 192.0 L 617.0 193.0 L 616.0 194.0 L 615.0 195.0 L 614.0 196.0 L 613.0 197.0 L 613.0 198.0 L 612.0 199.0 L 611.0 200.0 L 610.0 201.0 L 610.0 202.0 L 609.0 203.0 L 608.0 204.0 L 607.0 205.0 L 606.0 206.0 L 606.0 207.0 L 605.0 208.0 L 604.0 209.0 L 604.0 210.0 L 603.0 211.0 L 602.0 212.0 L 602.0 213.0 L 601.0 214.0 L 600.0 215.0 L 600.0 216.0 L 599.0 217.0 L 599.0 218.0 L 598.0 219.0 L 597.0 220.0 L 597.0 221.0 L 596.0 222.0 L 596.0 223.0 L 596.0 224.0 L 595.0 225.0 L 595.0 226.0 L 594.0 227.0 L 594.0 228.0 L 593.0 229.0 L 593.0 230.0 L 592.0 231.0 L 592.0 232.0 L 591.0 233.0 L 591.0 234.0 L 590.0 235.0 L 590.0 236.0 L 590.0 237.0 L 589.0 238.0 L 589.0 239.0 L 589.0 240.0 L 588.0 241.0 L 588.0 242.0 L 588.0 243.0 L 587.0 244.0 L 587.0 245.0 L 587.0 246.0 L 587.0 247.0 L 586.0 248.0 L 586.0 249.0 L 586.0 250.0 L 586.0 251.0 L 585.0 252.0 L 585.0 253.0 L 585.0 254.0 L 585.0 255.0 L 584.0 256.0 L 584.0 257.0 L 584.0 258.0 L 584.0 259.0 L 584.0 260.0 L 584.0 261.0 L 583.0 262.0 L 583.0 263.0 L 583.0 264.0 L 583.0 265.0 L 583.0 266.0 L 583.0 267.0 L 583.0 268.0 L 582.0 269.0 L 582.0 270.0 L 582.0 271.0 L 582.0 272.0 L 582.0 273.0 L 582.0 274.0 L 582.0 275.0 L 582.0 276.0 L 582.0 277.0 L 582.0 278.0 L 582.0 279.0 L 582.0 280.0 L 582.0 281.0 L 582.0 282.0 L 582.0 283.0 L 582.0 284.0 L 582.0 285.0 L 582.0 286.0 L 582.0 287.0 L 582.0 288.0 L 582.0 289.0 L 582.0 290.0 L 582.0 291.0 L 582.0 292.0 L 582.0 293.0 L 582.0 294.0 L 583.0 295.0 L 583.0 296.0 L 583.0 297.0 L 583.0 298.0 L 583.0 299.0 L 583.0 300.0 L 584.0 301.0 L 584.0 302.0 L 584.0 303.0 L 584.0 304.0 L 584.0 305.0 L 584.0 306.0 L 585.0 307.0 L 585.0 308.0 L 585.0 309.0 L 585.0 310.0 L 586.0 311.0 L 586.0 312.0 L 586.0 313.0 L 586.0 314.0 L 587.0 315.0 L 587.0 316.0 L 587.0 317.0 L 588.0 318.0 L 588.0 319.0 L 588.0 320.0 L 588.0 321.0 L 589.0 322.0 L 589.0 323.0 L 589.0 324.0 L 590.0 325.0 L 590.0 326.0 L 591.0 327.0 L 591.0 328.0 L 591.0 329.0 L 592.0 330.0 L 592.0 331.0 L 593.0 332.0 L 593.0 333.0 L 594.0 334.0 L 594.0 335.0 L 595.0 336.0 L 595.0 337.0 L 596.0 338.0 L 596.0 339.0 L 597.0 340.0 L 597.0 341.0 L 598.0 342.0 L 598.0 343.0 L 599.0 344.0 L 599.0 345.0 L 600.0 346.0 L 601.0 347.0 L 601.0 348.0 L 602.0 349.0 L 602.0 350.0 L 603.0 351.0 L 604.0 352.0 L 604.0 353.0 L 605.0 354.0 L 606.0 355.0 L 606.0 356.0 L 607.0 357.0 L 608.0 358.0 L 609.0 359.0 L 610.0 360.0 L 610.0 361.0 L 611.0 362.0 L 612.0 363.0 L 613.0 364.0 L 613.0 365.0 L 614.0 366.0 L 615.0 367.0 L 616.0 368.0 L 617.0 369.0 L 618.0 370.0 L 619.0 371.0 L 620.0 372.0 L 621.0 373.0 L 622.0 374.0 L 623.0 375.0 L 624.0 376.0 L 625.0 377.0 L 626.0 378.0 L 627.0 379.0 L 628.0 380.0 L 629.0 380.0 L 630.0 381.0 L 631.0 382.0 L 632.0 383.0 L 633.0 384.0 L 634.0 385.0 L 635.0 385.0 L 636.0 386.0 L 637.0 387.0 L 638.0 387.0 L 639.0 388.0 L 640.0 389.0 L 641.0 389.0 L 642.0 390.0 L 643.0 391.0 L 644.0 391.0 L 645.0 392.0 L 646.0 392.0 L 647.0 393.0 L 648.0 393.0 L 647.0 392.0 L 646.0 391.0 L 645.0 390.0 L 644.0 389.0 L 643.0 388.0 L 643.0 387.0 L 642.0 386.0 L 641.0 385.0 L 640.0 384.0 L 639.0 383.0 L 639.0 382.0 L 638.0 381.0 L 637.0 380.0 L 636.0 379.0 L 636.0 378.0 L 635.0 377.0 L 635.0 376.0 L 634.0 375.0 L 634.0 374.0 L 633.0 373.0 L 633.0 372.0 L 632.0 371.0 L 632.0 370.0 L 631.0 369.0 L 631.0 368.0 L 630.0 367.0 L 630.0 366.0 L 629.0 365.0 L 629.0 364.0 L 628.0 363.0 L 628.0 362.0 L 628.0 361.0 L 627.0 360.0 L 627.0 359.0 L 627.0 358.0 L 626.0 357.0 L 626.0 356.0 L 626.0 355.0 L 626.0 354.0 L 625.0 353.0 L 625.0 352.0 L 625.0 351.0 L 624.0 350.0 L 624.0 349.0 L 624.0 348.0 L 623.0 347.0 L 622.0 346.0 L 622.0 345.0 L 621.0 344.0 L 620.0 343.0 L 620.0 342.0 L 619.0 341.0 L 618.0 340.0 L 618.0 339.0 L 617.0 338.0 L 616.0 337.0 L 616.0 336.0 L 615.0 335.0 L 615.0 334.0 L 614.0 333.0 L 613.0 332.0 L 613.0 331.0 L 612.0 330.0 L 612.0 329.0 L 611.0 328.0 L 611.0 327.0 L 610.0 326.0 L 610.0 325.0 L 610.0 324.0 L 609.0 323.0 L 609.0 322.0 L 608.0 321.0 L 608.0 320.0 L 608.0 319.0 L 607.0 318.0 L 607.0 317.0 L 607.0 316.0 L 606.0 315.0 L 606.0 314.0 L 606.0 313.0 L 605.0 312.0 L 605.0 311.0 L 605.0 310.0 L 604.0 309.0 L 604.0 308.0 L 604.0 307.0 L 604.0 306.0 L 603.0 305.0 L 603.0 304.0 L 603.0 303.0 L 603.0 302.0 L 603.0 301.0 L 603.0 300.0 L 602.0 299.0 L 602.0 298.0 L 602.0 297.0 L 602.0 296.0 L 602.0 295.0 L 602.0 294.0 L 601.0 293.0 L 601.0 292.0 L 601.0 291.0 L 601.0 290.0 L 601.0 289.0 L 601.0 288.0 L 601.0 287.0 L 601.0 286.0 L 601.0 285.0 L 601.0 284.0 L 601.0 283.0 L 601.0 282.0 L 601.0 281.0 L 601.0 280.0 L 601.0 279.0 L 601.0 278.0 L 601.0 277.0 L 601.0 276.0 L 601.0 275.0 L 601.0 274.0 L 601.0 273.0 L 601.0 272.0 L 601.0 271.0 L 601.0 270.0 L 601.0 269.0 L 601.0 268.0 L 602.0 267.0 L 602.0 266.0 L 602.0 265.0 L 602.0 264.0 L 602.0 263.0 L 602.0 262.0 L 602.0 261.0 L 603.0 260.0 L 603.0 259.0 L 603.0 258.0 L 603.0 257.0 L 603.0 256.0 L 604.0 255.0 L 604.0 254.0 L 604.0 253.0 L 604.0 252.0 L 605.0 251.0 L 605.0 250.0 L 605.0 249.0 L 606.0 248.0 L 606.0 247.0 L 606.0 246.0 L 607.0 245.0 L 607.0 244.0 L 607.0 243.0 L 608.0 242.0 L 608.0 241.0 L 609.0 240.0 L 609.0 239.0 L 609.0 238.0 L 610.0 237.0 L 610.0 236.0 L 611.0 235.0 L 611.0 234.0 L 611.0 233.0 L 612.0 232.0 L 612.0 231.0 L 613.0 230.0 L 613.0 229.0 L 613.0 228.0 L 613.0 227.0 L 614.0 226.0 L 614.0 225.0 L 614.0 224.0 L 614.0 223.0 L 614.0 222.0 L 614.0 221.0 L 614.0 220.0 L 614.0 219.0 L 614.0 218.0 L 615.0 217.0 L 615.0 216.0 L 615.0 215.0 L 615.0 214.0 L 615.0 213.0 L 616.0 212.0 L 616.0 211.0 L 616.0 210.0 L 616.0 209.0 L 617.0 208.0 L 617.0 207.0 L 617.0 206.0 L 618.0 205.0 L 618.0 204.0 L 618.0 203.0 L 619.0 202.0 L 619.0 201.0 L 619.0 200.0 L 620.0 199.0 L 620.0 198.0 L 621.0 197.0 L 621.0 196.0 L 622.0 195.0 L 622.0 194.0 L 623.0 193.0 L 623.0 192.0 L 624.0 191.0 L 624.0 190.0 L 625.0 189.0 L 625.0 188.0 L 626.0 187.0 L 626.0 186.0 L 627.0 185.0 L 628.0 184.0 L 629.0 183.0 Z" fill="black"/>
    <path d="M 692.0 189.0 L 691.0 190.0 L 690.0 190.0 L 689.0 190.0 L 688.0 190.0 L 687.0 190.0 L 686.0 190.0 L 685.0 190.0 L 684.0 191.0 L 683.0 191.0 L 682.0 191.0 L 681.0 191.0 L 680.0 192.0 L 679.0 192.0 L 678.0 192.0 L 677.0 192.0 L 676.0 193.0 L 675.0 193.0 L 674.0 193.0 L 673.0 193.0 L 672.0 194.0 L 671.0 194.0 L 670.0 194.0 L 669.0 195.0 L 668.0 195.0 L 667.0 195.0 L 666.0 196.0 L 665.0 196.0 L 664.0 196.0 L 663.0 197.0 L 662.0 197.0 L 661.0 198.0 L 660.0 198.0 L 659.0 199.0 L 658.0 199.0 L 657.0 199.0 L 656.0 200.0 L 655.0 201.0 L 654.0 202.0 L 653.0 203.0 L 653.0 204.0 L 652.0 205.0 L 652.0 206.0 L 651.0 207.0 L 651.0 208.0 L 650.0 209.0 L 650.0 210.0 L 650.0 211.0 L 649.0 212.0 L 649.0 213.0 L 649.0 214.0 L 648.0 215.0 L 648.0 216.0 L 648.0 217.0 L 648.0 218.0 L 647.0 219.0 L 647.0 220.0 L 647.0 221.0 L 647.0 222.0 L 648.0 221.0 L 649.0 220.0 L 650.0 220.0 L 651.0 219.0 L 652.0 219.0 L 653.0 218.0 L 654.0 217.0 L 655.0 217.0 L 656.0 216.0 L 657.0 216.0 L 658.0 215.0 L 659.0 215.0 L 660.0 214.0 L 661.0 214.0 L 662.0 213.0 L 663.0 213.0 L 664.0 212.0 L 665.0 212.0 L 666.0 211.0 L 667.0 211.0 L 668.0 210.0 L 669.0 210.0 L 670.0 210.0 L 671.0 209.0 L 672.0 209.0 L 673.0 209.0 L 674.0 208.0 L 675.0 208.0 L 676.0 208.0 L 677.0 207.0 L 678.0 207.0 L 679.0 207.0 L 680.0 206.0 L 681.0 206.0 L 682.0 206.0 L 683.0 206.0 L 684.0 205.0 L 685.0 205.0 L 686.0 205.0 L 687.0 205.0 L 688.0 205.0 L 689.0 204.0 L 690.0 204.0 L 691.0 203.0 L 692.0 203.0 L 693.0 202.0 L 694.0 201.0 L 695.0 200.0 L 696.0 200.0 L 697.0 199.0 L 698.0 198.0 L 699.0 198.0 L 700.0 197.0 L 701.0 196.0 L 702.0 196.0 L 703.0 195.0 L 704.0 195.0 L 705.0 194.0 L 706.0 193.0 L 707.0 193.0 L 708.0 192.0 L 709.0 192.0 L 710.0 191.0 L 711.0 191.0 L 712.0 190.0 L 713.0 190.0 L 714.0 189.0 L 713.0 189.0 L 712.0 189.0 L 711.0 189.0 L 710.0 189.0 L 709.0 189.0 L 708.0 189.0 L 707.0 189.0 L 706.0 189.0 L 705.0 189.0 L 704.0 189.0 L 703.0 189.0 L 702.0 189.0 L 701.0 189.0 L 700.0 189.0 L 699.0 189.0 L 698.0 189.0 L 697.0 189.0 L 696.0 189.0 L 695.0 189.0 L 694.0 189.0 L 693.0 189.0 Z" fill="black"/>
    <path d="M 658.0 347.0 L 658.0 348.0 L 658.0 349.0 L 659.0 350.0 L 659.0 351.0 L 659.0 352.0 L 660.0 353.0 L 660.0 354.0 L 660.0 355.0 L 661.0 356.0 L 661.0 357.0 L 662.0 358.0 L 662.0 359.0 L 663.0 360.0 L 663.0 361.0 L 664.0 362.0 L 665.0 363.0 L 665.0 364.0 L 666.0 365.0 L 667.0 366.0 L 668.0 366.0 L 669.0 367.0 L 670.0 367.0 L 671.0 368.0 L 672.0 368.0 L 673.0 369.0 L 674.0 369.0 L 675.0 369.0 L 676.0 370.0 L 677.0 370.0 L 678.0 370.0 L 679.0 370.0 L 680.0 371.0 L 681.0 371.0 L 682.0 371.0 L 683.0 371.0 L 684.0 371.0 L 685.0 371.0 L 686.0 372.0 L 687.0 372.0 L 688.0 372.0 L 689.0 372.0 L 690.0 372.0 L 691.0 372.0 L 692.0 372.0 L 693.0 372.0 L 694.0 373.0 L 695.0 373.0 L 696.0 373.0 L 697.0 373.0 L 698.0 373.0 L 699.0 373.0 L 700.0 373.0 L 701.0 373.0 L 702.0 373.0 L 703.0 373.0 L 704.0 373.0 L 705.0 373.0 L 706.0 373.0 L 707.0 373.0 L 708.0 373.0 L 709.0 373.0 L 710.0 373.0 L 711.0 373.0 L 712.0 373.0 L 713.0 373.0 L 714.0 373.0 L 715.0 373.0 L 716.0 372.0 L 717.0 372.0 L 718.0 372.0 L 717.0 372.0 L 716.0 371.0 L 715.0 371.0 L 714.0 370.0 L 713.0 370.0 L 712.0 369.0 L 711.0 369.0 L 710.0 368.0 L 709.0 368.0 L 708.0 368.0 L 707.0 367.0 L 706.0 367.0 L 705.0 366.0 L 704.0 366.0 L 703.0 365.0 L 702.0 365.0 L 701.0 364.0 L 700.0 363.0 L 699.0 363.0 L 698.0 362.0 L 697.0 361.0 L 696.0 361.0 L 695.0 360.0 L 694.0 360.0 L 693.0 359.0 L 692.0 359.0 L 691.0 358.0 L 690.0 358.0 L 689.0 357.0 L 688.0 357.0 L 687.0 357.0 L 686.0 357.0 L 685.0 357.0 L 684.0 357.0 L 683.0 356.0 L 682.0 356.0 L 681.0 356.0 L 680.0 356.0 L 679.0 355.0 L 678.0 355.0 L 677.0 355.0 L 676.0 354.0 L 675.0 354.0 L 674.0 354.0 L 673.0 353.0 L 672.0 353.0 L 671.0 353.0 L 670.0 352.0 L 669.0 352.0 L 668.0 351.0 L 667.0 351.0 L 666.0 351.0 L 665.0 350.0 L 664.0 350.0 L 663.0 349.0 L 662.0 349.0 L 661.0 348.0 L 660.0 348.0 L 659.0 347.0 Z" fill="black"/>
    <path d="M 756.0 204.0 L 755.0 205.0 L 754.0 205.0 L 753.0 205.0 L 752.0 205.0 L 751.0 206.0 L 750.0 206.0 L 749.0 206.0 L 748.0 207.0 L 747.0 207.0 L 746.0 207.0 L 745.0 207.0 L 744.0 208.0 L 743.0 208.0 L 742.0 208.0 L 742.0 209.0 L 743.0 209.0 L 744.0 209.0 L 745.0 210.0 L 746.0 210.0 L 747.0 211.0 L 748.0 211.0 L 749.0 211.0 L 750.0 212.0 L 751.0 212.0 L 752.0 213.0 L 753.0 213.0 L 754.0 214.0 L 755.0 214.0 L 756.0 215.0 L 757.0 215.0 L 758.0 216.0 L 759.0 216.0 L 760.0 217.0 L 761.0 218.0 L 762.0 218.0 L 763.0 219.0 L 764.0 219.0 L 765.0 220.0 L 766.0 221.0 L 767.0 221.0 L 768.0 222.0 L 769.0 223.0 L 770.0 224.0 L 771.0 224.0 L 772.0 225.0 L 773.0 226.0 L 774.0 227.0 L 775.0 228.0 L 776.0 229.0 L 777.0 230.0 L 778.0 231.0 L 779.0 232.0 L 780.0 233.0 L 781.0 234.0 L 782.0 235.0 L 783.0 236.0 L 784.0 237.0 L 785.0 238.0 L 786.0 239.0 L 786.0 240.0 L 787.0 241.0 L 788.0 242.0 L 789.0 243.0 L 789.0 244.0 L 790.0 245.0 L 791.0 246.0 L 791.0 247.0 L 792.0 248.0 L 793.0 249.0 L 794.0 248.0 L 795.0 248.0 L 796.0 247.0 L 797.0 246.0 L 796.0 245.0 L 796.0 244.0 L 795.0 243.0 L 795.0 242.0 L 794.0 241.0 L 794.0 240.0 L 793.0 239.0 L 792.0 238.0 L 792.0 237.0 L 791.0 236.0 L 791.0 235.0 L 790.0 234.0 L 789.0 233.0 L 789.0 232.0 L 788.0 231.0 L 787.0 230.0 L 787.0 229.0 L 786.0 228.0 L 785.0 227.0 L 784.0 226.0 L 783.0 225.0 L 783.0 224.0 L 782.0 223.0 L 781.0 222.0 L 780.0 221.0 L 779.0 220.0 L 778.0 219.0 L 777.0 218.0 L 776.0 217.0 L 775.0 216.0 L 774.0 215.0 L 773.0 214.0 L 772.0 214.0 L 771.0 213.0 L 770.0 212.0 L 769.0 211.0 L 768.0 210.0 L 767.0 209.0 L 766.0 209.0 L 765.0 208.0 L 764.0 208.0 L 763.0 207.0 L 762.0 206.0 L 761.0 205.0 L 760.0 205.0 L 759.0 204.0 L 758.0 204.0 L 757.0 204.0 Z" fill="black"/>
    <path d="M 793.0 312.0 L 792.0 313.0 L 791.0 314.0 L 791.0 315.0 L 790.0 316.0 L 789.0 317.0 L 789.0 318.0 L 788.0 319.0 L 787.0 320.0 L 786.0 321.0 L 786.0 322.0 L 785.0 323.0 L 784.0 324.0 L 783.0 325.0 L 782.0 326.0 L 781.0 327.0 L 780.0 328.0 L 779.0 329.0 L 778.0 330.0 L 777.0 331.0 L 776.0 332.0 L 775.0 333.0 L 774.0 334.0 L 773.0 335.0 L 772.0 336.0 L 771.0 336.0 L 770.0 337.0 L 769.0 338.0 L 768.0 339.0 L 767.0 339.0 L 766.0 340.0 L 765.0 341.0 L 764.0 341.0 L 763.0 342.0 L 762.0 343.0 L 761.0 343.0 L 760.0 344.0 L 759.0 344.0 L 758.0 345.0 L 757.0 346.0 L 756.0 346.0 L 755.0 347.0 L 754.0 347.0 L 753.0 348.0 L 752.0 348.0 L 751.0 348.0 L 750.0 349.0 L 749.0 349.0 L 748.0 350.0 L 747.0 350.0 L 746.0 351.0 L 747.0 351.0 L 748.0 352.0 L 749.0 352.0 L 750.0 352.0 L 751.0 353.0 L 752.0 353.0 L 753.0 353.0 L 754.0 353.0 L 755.0 354.0 L 756.0 354.0 L 757.0 354.0 L 758.0 354.0 L 759.0 354.0 L 760.0 355.0 L 761.0 355.0 L 762.0 355.0 L 763.0 354.0 L 764.0 353.0 L 765.0 353.0 L 766.0 352.0 L 767.0 351.0 L 768.0 350.0 L 769.0 349.0 L 770.0 349.0 L 771.0 348.0 L 772.0 347.0 L 773.0 346.0 L 774.0 345.0 L 775.0 344.0 L 776.0 343.0 L 777.0 342.0 L 778.0 341.0 L 779.0 340.0 L 780.0 339.0 L 781.0 338.0 L 782.0 337.0 L 783.0 336.0 L 784.0 335.0 L 784.0 334.0 L 785.0 333.0 L 786.0 332.0 L 787.0 331.0 L 787.0 330.0 L 788.0 329.0 L 789.0 328.0 L 790.0 327.0 L 790.0 326.0 L 791.0 325.0 L 791.0 324.0 L 792.0 323.0 L 793.0 322.0 L 793.0 321.0 L 794.0 320.0 L 794.0 319.0 L 795.0 318.0 L 795.0 317.0 L 796.0 316.0 L 796.0 315.0 L 796.0 314.0 L 795.0 313.0 L 794.0 313.0 Z" fill="black"/>
  </g>
</svg>
